# xmcd CD database file generated by OrangeCD 5.2
#
# Track frame offsets:
#	150
#	18578
#	35817
#	55005
#	70335
#	80473
#	95047
#	121312
#	139769
#	155335
#	169759
#	181821
#	200167
#	216807
#
# Disc length: 3135 seconds
#
# Revision: 4
# Processed by: cddbd v1.5.1PL0 Copyright (c) Steve Scherf et al.
# Submitted via: OrangeCD 5.2
#
DISCID=c80c3d0e
DTITLE=Geirmundur Valtýsson - Bros
DYEAR=1997
DGENRE=Pop
TTITLE0=Linudans með Linu
TTITLE1=Bros og bjartsýni
TTITLE2=Ótrúlega blá
TTITLE3=Lukkuhjólið
TTITLE4=Maður á miðjum aldri
TTITLE5=Alltaf númer eitt
TTITLE6=Litja barn
TTITLE7=Sumardagur
TTITLE8=Faðmur dalsins
TTITLE9=Nú skal ég i Skagafjörð
TTITLE10=Ég vona það
TTITLE11=Vorið biður eftir þér
TTITLE12=Þúsund kossar
TTITLE13=Þegar sólin er sest
EXTD=
EXTT0=
EXTT1=
EXTT2=
EXTT3=
EXTT4=
EXTT5=
EXTT6=
EXTT7=
EXTT8=
EXTT9=
EXTT10=
EXTT11=
EXTT12=
EXTT13=
PLAYORDER=
